<svg id="レイヤー_1" data-name="レイヤー 1" xmlns="http://www.w3.org/2000/svg" viewBox="0 0 10.98 12">
  <defs>
    <style>
      path {
        fill: #fe5e34;
      }
      @media (prefers-color-scheme: dark) {
        path {
          fill: #01a1cb; <!-- 取り敢えずライトモードの反転色を指定 -->
        }
      }
    </style>
  </defs><path d="M643.87 518.41c.21-.41.42-.82.64-1.23.11-.21.23-.46.51-.31s.26.45.07.69-.5.56-.75.85zM635.44 518.41c-.3-.34-.61-.67-.89-1a.34.34 0 01.12-.5.29.29 0 01.46.16c.16.46.57.82.55 1.36z" transform="translate(-634.37 -506.41)"/>
  <path d="M639.34 511.07a6.81 6.81 0 01-1.31-3.65c-.06-.64.23-1.06.94-1s.56.59.53 1l-.16 3.65zM640.42 511c-.09-1.35-.15-2.46-.24-3.57 0-.48-.16-1 .54-1a.83.83 0 011 1 7.19 7.19 0 01-1.3 3.57z" transform="translate(-634.37 -506.41)"/>
  <path d="M641.53 511.48c.24-1.06.46-2 .65-2.91.08-.36.12-.76.61-.63a.7.7 0 01.52.91 4.58 4.58 0 01-1.78 2.63z" transform="translate(-634.37 -506.41)" fill="#fe5e34"/><path class="cls-3" d="M638.12 511.5a5.16 5.16 0 01-1.69-2.54.71.71 0 01.5-1c.57-.13.56.37.63.75.17.85.34 1.71.56 2.79z" transform="translate(-634.37 -506.41)"/>
  <path
    d="M642.42 512.64c.36-.92.63-1.63.91-2.34.11-.29.21-.65.63-.47a.58.58 0 01.28.88 4 4 0 01-1.82 1.93zM637.28 512.6a3.6 3.6 0 01-1.8-1.88.59.59 0 01.29-.88c.39-.14.51.17.63.49.25.67.54 1.4.88 2.27zM643.18 514l.88-2.05c.12-.28.26-.51.59-.33a.48.48 0 01.21.69 3.64 3.64 0 01-1.68 1.69zM636.49 513.87a2.88 2.88 0 01-1.6-1.47.54.54 0 01.17-.81c.43-.23.51.14.63.42.23.56.47 1.11.8 1.86zM636.13 515.42a2.92 2.92 0 01-1.6-1.36.42.42 0 01.15-.6c.27-.15.43 0 .55.23.27.5.53 1.01.9 1.73zM643.54 515.47c.4-.77.65-1.27.92-1.76.11-.21.27-.41.54-.28s.32.42.17.68a3.36 3.36 0 01-1.63 1.36zM643.85 516.83c.29-.56.51-1 .7-1.36s.36-.46.63-.28.18.48 0 .72a2.24 2.24 0 01-1.33.92zM635.79 516.67c-.13.06-.16.09-.19.08a1.66 1.66 0 01-1.22-1.23c-.09-.6.55-.44 1 .3.09.27.24.54.41.85z"
    transform="translate(-634.37 -506.41)"/>
</svg>
